<svg id="Layer_1" data-name="Layer 1" xmlns="http://www.w3.org/2000/svg" viewBox="0 0 593.05 566.93"><defs><style>.cls-1{fill:#b31f2e;}.cls-2{fill:#fff;}</style></defs><circle class="cls-1" cx="296.53" cy="286.05" r="153.53"/><path class="cls-2" d="M261.39,213a11.14,11.14,0,0,0-6.41,1.57q-2.26,1.59-3.15,5.91a70.43,70.43,0,0,0-.89,13v23.05q0,9.27-2.07,15.18a26.62,26.62,0,0,1-5,9.16,26.94,26.94,0,0,1-5.91,5,29.55,29.55,0,0,1,5.71,5,28.78,28.78,0,0,1,5.12,8.57,35.69,35.69,0,0,1,2.17,13.4v25.82a70.42,70.42,0,0,0,.89,12.9q.88,4.44,3.15,6a11.14,11.14,0,0,0,6.41,1.58h8.66v16.16H257.44q-4.92,0-9.45-.3a18.13,18.13,0,0,1-8.18-2.46q-3.66-2.18-5.81-7.59t-2.17-15.86V318a40.79,40.79,0,0,0-1.58-11.24,22.73,22.73,0,0,0-5-9.26,11.89,11.89,0,0,0-9.17-3.74V277.58a12.67,12.67,0,0,0,9.17-3.84,21.86,21.86,0,0,0,5-9.26,41.83,41.83,0,0,0,1.58-11.34V220.43q0-9.26,2.17-14.18a13.61,13.61,0,0,1,5.81-6.9,20,20,0,0,1,8.27-2.27q4.63-.29,9.36-.29h12.61V213Z"/><path class="cls-2" d="M323,213V196.79h12.61q4.72,0,9.36.29a20,20,0,0,1,8.28,2.27,13.71,13.71,0,0,1,5.81,6.9q2.18,4.92,2.17,14.18v32.71a41.82,41.82,0,0,0,1.57,11.34,21.87,21.87,0,0,0,5,9.26,12.65,12.65,0,0,0,9.16,3.84v16.16a11.87,11.87,0,0,0-9.16,3.74,22.75,22.75,0,0,0-5,9.26A40.78,40.78,0,0,0,361.23,318v31.13q0,10.44-2.17,15.86t-5.81,7.59a18.17,18.17,0,0,1-8.18,2.46c-3,.2-6.18.3-9.46.3H323V359.16h8.67a11.1,11.1,0,0,0,6.4-1.58q2.26-1.57,3.16-6a70.59,70.59,0,0,0,.88-12.9V312.85a35.89,35.89,0,0,1,2.17-13.4,29,29,0,0,1,5.12-8.57,29.29,29.29,0,0,1,5.72-5,26.94,26.94,0,0,1-5.91-5,26.63,26.63,0,0,1-5-9.16q-2.07-5.91-2.07-15.18V233.44a70.62,70.62,0,0,0-.88-13q-.9-4.32-3.16-5.91a11.11,11.11,0,0,0-6.4-1.57Z"/></svg>