<svg xmlns="http://www.w3.org/2000/svg" viewBox="0 0 3042 1334"><defs><style>.cls-1{fill:#fff;}.cls-2{fill:#7b1111;}</style></defs><g id="Backgrounds"><rect x="-0.32" y="-1.25" width="3041.66" height="1337"/></g><g id="Logo_White" data-name="Logo White"><path class="cls-1" d="M1010,423.39q0-37.39,19.14-57.43,21.38-22.71,66.34-22.71,41.41,0,68.57,12.47,19.14,8.91,28.49,22.26,6.67,9.79,6.68,18.25c0,2.38-.3,3.86-.89,4.45a8,8,0,0,1-2.23-2.22q-7.12-21.81-18.25-30.72-24.94-20-85-20-21.83,0-37,12.47-17.37,14.25-17.37,39.18,0,29.38,41.41,42.3,38.73,11.13,77.91,21.81,41.85,18.71,41.86,62.34,0,19.59-3.79,34.06c-2.52,9.64-22.68,42.21-28.92,50.82,12.87-47.49-8.26-95.72-38.53-110.26l-78.36-20.48Q1010,467.48,1010,423.39Z"/><path class="cls-1" d="M1401.92,425.8a2.64,2.64,0,0,1,1.87,2.8,16.69,16.69,0,0,1-1.55,5.3,16.39,16.39,0,0,0-1.56,5.92v6.23c0,3.74-.11,6.76-.31,9a51.31,51.31,0,0,1-1.72,8.57q-1.39,5.14-3,10.76c-1,3.74-2.6,5.29-4.67,4.67-1.46-.2-2.19-2.39-2.19-6.54,0-1.46.05-3.17.16-5.15s.26-4.2.47-6.7c0-1.66-.21-2.59-.63-2.8,0-2.33-2.54-4.59-7.63-6.82s-8.47-3.64-10.13-4.27a80.41,80.41,0,0,0-18.54-5.86,97.9,97.9,0,0,0-18.86-2.06c-4,0-6.39.41-7.32,1.25a4.33,4.33,0,0,0-1.41,3.43v99.21l-3.11,39.62-13.41,76.44q-3.74-19.32-5.61-30.22-5.61-30.84-8.1-48.91l-2.18-38.63-1.25-96.9c0-2.9-.42-4.67-1.24-5.29q-2.51-2.19-28.36,4.35T1233.94,456q-1.87,6.22-3.12,9.33-4,10.28-5.92,10.58-3.12.62-4.68-2.5a17.3,17.3,0,0,1-1.55-7.79,32.27,32.27,0,0,1,.62-5.61,31.89,31.89,0,0,0,.62-5q-.32-6.54-.62-13.4a35.7,35.7,0,0,0,0-6.54q-.32-3.12-.62-6.55,0-4.35,1.87-4.67c1.45-.21,3.42.85,5.92,3.15s4.67,3.47,6.54,3.47h158.33q2.18,0,5.45-2.65C1399,426.06,1400.68,425.38,1401.92,425.8Z"/><path class="cls-1" d="M1439.63,572.59v21.52l.64,5.9.75,70.58,1.73,37.47q2,17.52,6.42,47.44,1.49,10.57,4.45,29.31l10.63-74.14,2.47-38.43V576l-.19-3.38,1.15-137.75q0-3.12,10-10.32t10-8.44q0-1.26-2.82-1.26a69.81,69.81,0,0,0-9.24,1.1q-6.73,1.1-14.87,3-3.45.93-26,4.36-7.2,2.5-14.09,4.69,1.26,3.12,8.08,4.06t8.87,4.53a15,15,0,0,1,2.06,7.65V572.59Z"/><path class="cls-2" d="M1467,649.9l.19,150-2.53,79.64L1453.8,991.25c-2-40.59-3.53-55.3-4.55-65.92q-4.55-45-6.57-71.45l-1.77-56.43-.76-106.3-.65-8.89s1-19.5,1-27.27C1446.42,657.9,1467,649.9,1467,649.9Z"/><path class="cls-1" d="M1720.74,606.56V443.18a14.46,14.46,0,0,0-2.18-7.63q-2.18-3.6-8.41-6.71t-8.1-5.62c-.63-1-.84-1.76-.63-2.18s.73-.62,1.56-.62q1.88,0,20.26,4.13,10,2.19,13.71,2.18a41.08,41.08,0,0,0,10.13-1.4q5.45-1.41,11.06-3a.55.55,0,0,1,.63.62q0,.63-2.81,3.43c-1.24,1.25-1,2.44.63,3.58s1.87,2.55.62,4.21c-2.29,3.12-3.43,5.92-3.43,8.42v77.29q17.46-18.07,37.09-37.09,17.13-16.51,37.71-35.22,9.66-8.72,16.52-12.15a28.71,28.71,0,0,1,12.78-3.43q4.35,0,12.78,3.12c3.32,1.24,5.71,1.87,7.16,1.87a13.93,13.93,0,0,1-1.56.93q-16.52,3.74-20.25,5.3-12.79,5.92-46.29,30.08t-33.5,27.89q0,3.43,26.8,26.49,15.59,13.41,21.82,21.5,10.9,16.21,22.6,33t19.16,20a70.15,70.15,0,0,0,7.48,2.49,28.17,28.17,0,0,1,9.35,4.36c1,.84,1.45,1.62,1.25,2.34s-2,1.09-5.3,1.09q-5.93,0-12.15-.62-22.14-2.18-23.07-2.18-11.54,0-18.38-6.86-11.22-14.64-22.76-29.3l-34.28-43.63a24.62,24.62,0,0,0-4.21-4.36,7.52,7.52,0,0,0-4.52-1.25,7.17,7.17,0,0,0-6.23,5V602.2q-5.29,1.24-10.6,2.18-15.27,3.12-19.63,3.12C1721.68,607.5,1720.74,607.18,1720.74,606.56Z"/><path class="cls-1" d="M1900.89,480q0-26.17,13.4-40.2,15-15.88,46.43-15.89,29,0,48,8.72,13.4,6.24,20,15.59,4.66,6.86,4.67,12.77c0,1.67-.21,2.71-.62,3.12a5.39,5.39,0,0,1-1.56-1.56q-5-15.27-12.78-21.5-17.46-14-59.52-14-15.28,0-25.87,8.73-12.16,10-12.16,27.43,0,20.57,29,29.6,27.11,7.8,54.54,15.28,29.3,13.08,29.29,43.63a95.23,95.23,0,0,1-2.64,23.84,57.43,57.43,0,0,1-9.2,19.17q-6.24-45.51-38-60.78l-54.85-14.33Q1900.89,510.88,1900.89,480Zm86,133.4q-11.22,0-32.42-5t-28.67-5a27.19,27.19,0,0,0-15,3.43,18.31,18.31,0,0,0-3.12,2.18,14.07,14.07,0,0,0,3.43-4,25.24,25.24,0,0,0,3.43-13.4,15.23,15.23,0,0,0-2.18-8.57c-1.46-2.18-2.91-4.52-4.37-7q0-2.17,3.43-5.61,6.24,14.65,24,28.05Q1955.11,613.42,1986.91,613.42Z"/><path class="cls-1" d="M1550.35,604.64a107.48,107.48,0,0,1-32.41-31.79q-15-22.44-15-46.75,0-48.63,29.29-79.17,28.37-29.28,70.44-29.29a90.1,90.1,0,0,1,21.82,2.49q23.67,5.92,26.8,5.92a31.58,31.58,0,0,0,5-.31q.93-1.58,5.92-4.24t6.54-5.81a30.75,30.75,0,0,0,.94,4.68q.3,7.47.31,15v17.14q0,3.12.31,9.66c.21,4.36.31,7.38.31,9a25.86,25.86,0,0,1-.47,6.23c-.31,1-1,1.25-2,.62-2.29-1-3.85-4.15-4.68-9.33s-1.55-10.16-2.18-14.94q-5-15.86-21.5-21.78-12.16-4.35-34.6-4.36-35.84,0-53.29,33-14,26.49-14,65.42,0,17.46,17.15,43.31c11.42,17.24,46.73,36.4,58.6,37.69-25.72,3.28-29.68,2.29-42.54,1.3S1552.22,605.68,1550.35,604.64Z"/><path class="cls-1" d="M1714.55,636.47h-33.64v65.87l-19.18-22.9v-43h-42.9V619.38h42.9V565.86l19.18,15.38v38.14h33.64Z"/><path class="cls-1" d="M931.38,676.14q0-37.41,19.15-57.44Q971.89,596,1016.86,596q41.42,0,68.57,12.46,19.14,8.91,28.5,22.26,6.67,9.81,6.67,18.26c0,2.38-.29,3.86-.89,4.45a7.86,7.86,0,0,1-2.22-2.23q-7.12-21.81-18.26-30.72-24.93-20-85-20-21.81,0-37,12.46-17.37,14.26-17.37,39.18,0,29.4,41.41,42.3,38.74,11.13,77.92,21.82,41.83,18.69,41.85,62.33,0,19.61-3.78,34.06A81.81,81.81,0,0,1,1104.13,840q-8.91-65-54.32-86.82l-78.36-20.48Q931.39,720.22,931.38,676.14ZM1054.26,866.7q-16,0-46.3-7.13t-41-7.12q-10.25-.88-21.37,4.9a24.7,24.7,0,0,0-4.45,3.11,20.18,20.18,0,0,0,4.89-5.78q4.9-8,4.9-19.15c0-5-1-9.13-3.12-12.24s-4.16-6.46-6.23-10q0-3.1,4.9-8,8.9,20.94,34.28,40.08Q1008.85,866.69,1054.26,866.7Z"/><path class="cls-1" d="M1323.32,678.54a2.66,2.66,0,0,1,1.87,2.81,16.48,16.48,0,0,1-1.56,5.29,16.65,16.65,0,0,0-1.56,5.93v6.23c0,3.74-.11,6.75-.31,9a51.31,51.31,0,0,1-1.72,8.57q-1.39,5.15-3,10.75t-4.67,4.68c-1.46-.21-2.18-2.39-2.18-6.55,0-1.45,0-3.16.15-5.14s.26-4.21.47-6.7c0-1.66-.21-2.6-.62-2.81q0-3.48-7.64-6.81t-10.13-4.28a80.1,80.1,0,0,0-18.54-5.86,98.69,98.69,0,0,0-18.86-2.06q-5.93,0-7.32,1.25a4.36,4.36,0,0,0-1.4,3.43V823.23l-3.12,39.62-13.4,76.44q-3.75-19.32-5.61-30.22-5.61-30.84-8.11-48.91l-2.18-38.63-1.24-124.6q0-4.36-1.25-5.3-2.51-2.18-28.36,4.35t-27.74,12.76c-1.25,4.15-2.29,7.25-3.12,9.33q-4.05,10.26-5.92,10.57-3.12.63-4.67-2.49a17.35,17.35,0,0,1-1.56-7.79,32.17,32.17,0,0,1,.62-5.61,31.27,31.27,0,0,0,.63-5q-.32-6.54-.63-13.4a34.11,34.11,0,0,0,0-6.55q-.32-3.1-.62-6.54,0-4.37,1.87-4.68c1.45-.2,3.43.85,5.92,3.16s4.68,3.47,6.55,3.47h158.32c1.45,0,3.27-.89,5.45-2.65S1322.07,678.13,1323.32,678.54Z"/><path class="cls-1" d="M1789.56,682.91a10.51,10.51,0,0,1-4.28,3.13,19.44,19.44,0,0,0-5.52,3.58q-3.06,2.67-4.29,9.21c-.81,4.38-1.48,7.91-2,10.62a74.54,74.54,0,0,0-1.07,7.8q-.32,3.75-.31,8.43v128a18.28,18.28,0,0,1-1.72,8q-1.71,3.58-4.83,3.59-3.43,0-41.76-42.16-23.37-25.61-69.19-78.37-18.39-20.93-36.78-42.16v97.55q0,6.85.63,20.1t.62,14.81l-13.71-1.25A100.86,100.86,0,0,0,1608,819q.46-5.78.47-18.86V679.79c0-1.45.56-2.13,1.7-2s2.55.16,4.21.16a36,36,0,0,0,8.08-1.09,33.63,33.63,0,0,1,6.84-1.09q4.37,0,10.58,3.13L1762.76,816V744.14q0-10-.62-17.18a154.61,154.61,0,0,0-2.5-16.57c-.42-3.12-.88-6.39-1.4-9.83A19.32,19.32,0,0,0,1755,692a41.35,41.35,0,0,1-3.28-5,30.84,30.84,0,0,0-3.27-4.69,6.61,6.61,0,0,1-1.24-2.49h6.54q10,2.49,13.4,2.49a67.52,67.52,0,0,0,12.62-1.71,92.84,92.84,0,0,1,9.51-1.72c1,0,1.66.32,1.87.94S1790.81,681.46,1789.56,682.91Z"/><path class="cls-1" d="M1825.4,827.36V693.48a4.35,4.35,0,0,0-.94-3,36.44,36.44,0,0,0-3.42-3.26c-.63-.63-2.45-.57-5.46.15a33.85,33.85,0,0,1-5.76,1.09q-5.61,0-5.61-5,0-2.49,2.8-4a12,12,0,0,1,5.92-1.56,12.5,12.5,0,0,1,5.61,1.24,9.94,9.94,0,0,0,4.37,1.25H1935.1a6.88,6.88,0,0,0,6.24-3.74q2.17-3.74,3.74-3.74,5.61,0,5.61,6.55-.63,5.92-.63,8.41,0,8.11.78,22.91t.78,15.43q0,7.78-1.56,7.79a4.21,4.21,0,0,1-3.74-1.87q-1.24-1.87-1.24-9,0-6.86-1.56-9.66-5.31-10-29-16.21a203.32,203.32,0,0,0-53-7.48q-6.54,0-6.54,7.48a34.68,34.68,0,0,0,1.4,8.42,42.07,42.07,0,0,0,1.4,5.29v54.23q3.45.32,8.14.47t11.89.16a180.76,180.76,0,0,0,27.38-1.87q12-1.87,16.12-6.86c1.66-2.07,2.66-5.09,3-9s2-5.92,5.16-5.92q5,0,5,6.86a56.63,56.63,0,0,1-.31,6.54q-1.56,12.47-1.56,14,0,4.05.62,11.22c.42,4.78.63,7.89.63,9.35q0,8.1-4.37,8.1c-3.11,0-5-2.54-5.76-7.64s-2.34-8.62-4.83-10.59-7.69-3.32-15.59-4-16.51-1.09-25.86-1.09h-19.64v33.24ZM1947,841.23q.3-.3,7.79-23.38c2.07-6.43,3.84-9.66,5.3-9.66q5,0,5,7.82a62.28,62.28,0,0,1-2.18,14.39q-2.17,8.76-4,16.58-1.56,13.13-2.49,20.79c-.63,5.11-2.18,7.66-4.68,7.66q-2.17,0-5.61-5.73a29.9,29.9,0,0,1-1.56-2.87c-1-.43-2.13-.85-3.27-1.28a10.07,10.07,0,0,0-3.58-.63l-78.54-1.25q36.46-4,48.62-6.55Q1935.1,851.51,1947,841.23Z"/><path class="cls-1" d="M1530.88,702.58a116.67,116.67,0,0,0-63.6-26.67l0,4.35q23.28,5.58,40.21,29.19,20.57,28.72,20.57,64.93a94,94,0,0,1-21.51,60.88q-22.44,27.78-54.23,27.79-30.22,0-50.8-28.41-19.32-26.53-19.32-60.26,0-36.52,18.39-64.62c10.89-16.79,23.22-26.8,39-30l.2-4.08c-24.13,2.27-44.68,11.64-63,28q-32,28.56-31.94,70.7,0,40,33.35,66.19,31.15,24.66,74.17,24.66,44.88,0,77.92-24.35,35.22-25.9,35.22-66.5Q1565.48,731.32,1530.88,702.58Z"/><path class="cls-1" d="M1976.86,732.77q0-26.17,13.41-40.2,15-15.9,46.43-15.9,29,0,48,8.73,13.4,6.24,20,15.58,4.67,6.85,4.67,12.78c0,1.66-.21,2.7-.62,3.12a5.52,5.52,0,0,1-1.56-1.56q-5-15.27-12.78-21.51-17.46-14-59.53-14-15.27,0-25.86,8.72-12.17,10-12.16,27.43,0,20.56,29,29.61,27.1,7.79,54.54,15.27,29.28,13.09,29.29,43.63A94.77,94.77,0,0,1,2107,828.3a57.07,57.07,0,0,1-9.19,19.16q-6.24-45.5-38-60.77l-54.86-14.34Q1976.86,763.64,1976.86,732.77Zm86,133.39q-11.22,0-32.41-5t-28.67-5a27.19,27.19,0,0,0-15,3.43,17.75,17.75,0,0,0-3.12,2.18,14.2,14.2,0,0,0,3.43-4,25.26,25.26,0,0,0,3.43-13.4,15.29,15.29,0,0,0-2.18-8.58c-1.46-2.18-2.92-4.51-4.37-7q0-2.18,3.43-5.61,6.24,14.65,24,28.05Q2031.09,866.17,2062.88,866.16Z"/></g><g id="Graves"><polygon class="cls-2" points="466.22 1349.59 494.46 1028.1 372.82 997.69 379.54 966.22 498.8 997.64 511.31 883.91 546.07 891.25 533.56 1006.61 645.61 1037.95 641.37 1068.49 529.22 1037.36 503.86 1349.59 466.22 1349.59"/><polygon class="cls-1" points="305.42 1354.21 293.99 1167.38 207.64 1177.63 209.21 1158.78 294.04 1148.18 290.75 1084.2 314.78 1081.7 318.59 1145.19 398.5 1136.21 398.52 1155.44 318.57 1164.56 332.14 1353.58 305.42 1354.21"/><polygon class="cls-1" points="621.65 1361.81 665.24 1208.09 723.5 1226.43 726 1210.61 668.87 1192.15 683.35 1139.43 667.07 1134.62 652.31 1186.87 598.31 1170.31 594.62 1186.27 648.64 1202.94 603.14 1358.24 621.65 1361.81"/></g><g id="Moon"><circle class="cls-1" cx="2729.5" cy="210.5" r="441.5"/></g><g id="Gallows"><path class="cls-2" d="M2975.46,1214.77c2,11.6,3.43,23.25,4.66,34.94.49,4.59-1,5.63-5.21,5.71-16.64.33-33.22-.94-49.82-1.65-22.38-.94-44.74-2.11-67.13-2.92-4-.15-6.32-1.56-8.05-5-9.13-18.2-21.75-31.68-30.81-49.91-.51-1-6.7.9-9,.64-5.89-.63-115.35,18.88-128.78,19.32-26.72.89-58.93,9.86-85.64,10.95-3.1.12-9.78-23.59-11-26.64a383.64,383.64,0,0,0-17.57-37.82c-2.5-4.59-1.09-7.31,3.44-9.42,5.55-2.59,11.44-3.29,17.36-3.82q20-1.76,40-3.13c8.3-.58,12.16-7.25,16.9-12.44,1.72-1.88,69.18-70.24,73.35-74.48,27.13-27.57,53.5-55.86,80.09-83.94,2.85-3,3-6.44,3-10,.16-21,.38-42,.4-63q.06-104.24,0-208.47c2.22-89.76,1.83-179.52,2.61-269.28a19.94,19.94,0,0,0-5.12-14.13q-62.25-73-124.23-146.27c-31.54-37.22-63.13-74.4-94.39-111.86a21,21,0,0,0-14.45-8.07c-8.06-1-16.16-1.75-24.21-2.85-4.92-.67-6.64.85-6.61,6.08.12,28.23-.15,56.47-.22,84.7-.13,50-.14,44.52-.39,94.47,0,7.77-2,18.23,5.08,22.74,1.2.76,3.22,4.51,0,5.79,2.58.65,3.86,3.87,1.93,5.8,1.93,1.93,1.93,2.57,0,4.51,1.93,0,3.22,5.79.65,6.44,2.57,1.28,2.37,2.39,2.46,3.43.11,1.36-.65,2.28-2.46,3-1.35.54-3.64,4.85-4.84,5.65-4.46,3-5.54,5.42-1.81,10.74,5.09,7.24,5.65,16.64,7.85,25.18,5.78,22.39,13.45,42.66,16.93,65.52,1.82,12,2.56,26.4-1.45,38.78-4.63,14.29-10.47,24.51-23,25.64-7.4.66-19.62-.74-24.09-6.41-9.18-11.67-13-24.53-10.52-39.53A262.21,262.21,0,0,1,2517.59,446c7.43-18,6.88-37.12,5.57-56.15-.3-4.36-.6-8.42-4.57-12.1-3-2.8-1.49-5.4.53-6.54-3.95-2.08-1.37-4.66-.08-5.94a3,3,0,0,1,0-5.15c-1.67-.56-1.29-4.51,0-4.51-1.29-.65-1.6-3.22-.65-3.87,4.93-3.31,7.9-10.22,7.82-14.78-1.07-61.69-2.22-68-3.31-129.7-.37-21.17-.83-42.34-.88-63.51,0-5.17-1-7-6.76-7.32-31-1.52-62-3.68-93-5.5-12.26-.72-24.54-.9-36.79-1.89-4.42-.35-6-1.84-6-6.22q.06-18.45-.48-36.91c-.14-4.56,1.48-5.86,5.94-5.86,30,0,59.94,2,89.92,2.8,54,1.43,108,3.21,162,5s108,3.7,161.94,5.44q63.64,2,127.3,3.67c5.65.14,8.66,1.75,9.2,7.68.88,9.72,2.11,19.41,3.29,29.1.5,4.17-.83,11.34-5.23,11.38-26,.19-44.32,3.59-63.52,3.86-8.15.12-8.18,15.84-8.18,23.84,0,72,0,119.72,0,191.75,0,86.87-.38,173.74.1,260.6q.8,143,3,286.08c0,83.16,22.07,198.66,30.35,230.64C2896.77,1148.43,2933.71,1185.63,2975.46,1214.77ZM2812.17,250.16c0-31.47,0-62.94,0-94.4,0-3.75-.4-6-5.1-6.19-55.41-1.73-110.82-3.4-166.26-4.3a21.38,21.38,0,0,0-8,1c-5.62,2.12-5.8,2.73-1.8,7.19l161.86,180.18c4.22,4.7,8.49,9.36,12.73,14.06.72.79,1.31,1.88,2.58,1.6,1.67-.37,1.41-1.88,1.53-3.08s.12-2.53.12-3.8m-277.82,66.75c-1.45.31-1.6,1.12-1.62,1.78-.63,21.06-6.65,40.71-14.2,60.26-6.45,16.67-10.58,34.12-7.48,52.5,2,11.74,10.66,20.38,21.59,20.44,8.72,0,13.27-6,17.18-12.29,10.26-16.59,7.84-34.86,5.74-52.77s-9-34.53-14.67-51.47C2536.53,421.42,2535.36,414.83,2532.05,409.16Zm199.79,713.2c13.93-1.17,50.33-7.11,63.43-8.21,8.08-.67,5.37-28.17,4.87-36.57-.95-15.85-1.71-31.7-2.58-47.56-.09-1.54.73-3.72-1-4.41-2.09-.84-3,1.49-4.05,2.77q-22.18,25.86-44.27,51.8c-2.5,3-28.38,38.78-27.05,41.26C2723.11,1125.05,2728.69,1121.8,2731.84,1122.36Z"/></g></svg>