<svg xmlns="http://www.w3.org/2000/svg" viewBox="0 0 1459 1334"><defs><style>.cls-1{fill:#fff;}.cls-2{fill:#7b1111;}</style></defs><g id="Backgrounds"><rect x="4.03" y="0.2" width="1459" height="1337"/></g><g id="Logo_Full" data-name="Logo Full"><path class="cls-1" d="M329.3,475.62q0-29.62,15.16-45.48,16.92-18,52.52-18,32.79,0,54.29,9.87,15.17,7.05,22.57,17.63,5.28,7.75,5.28,14.45c0,1.88-.23,3.06-.7,3.53a6.18,6.18,0,0,1-1.76-1.77Q471,438.61,462.2,431.55q-19.74-15.87-67.33-15.87-17.28,0-29.26,9.88-13.75,11.28-13.75,31,0,23.26,32.78,33.49,30.67,8.82,61.7,17.27,33.14,14.81,33.14,49.36a107.76,107.76,0,0,1-3,27c-2,7.64-18,33.43-22.9,40.24,10.19-37.6-6.54-75.79-30.51-87.31L361,520.39Q329.3,510.52,329.3,475.62Z"/><path class="cls-1" d="M639.63,477.52a2.09,2.09,0,0,1,1.48,2.22,13.21,13.21,0,0,1-1.23,4.2,12.93,12.93,0,0,0-1.23,4.68v4.94c0,3-.09,5.35-.25,7.16A41.33,41.33,0,0,1,637,507.5q-1.11,4.08-2.34,8.52t-3.7,3.7c-1.16-.16-1.73-1.89-1.73-5.18q0-1.72.12-4.08c.08-1.56.21-3.33.37-5.3,0-1.32-.16-2.06-.49-2.22q0-2.76-6-5.4t-8-3.38a63.43,63.43,0,0,0-14.68-4.65,78.43,78.43,0,0,0-14.93-1.63c-3.13,0-5.06.34-5.8,1a3.46,3.46,0,0,0-1.11,2.72v78.56l-2.47,31.37L565.6,662.05q-3-15.3-4.44-23.93-4.44-24.42-6.42-38.73L553,568.8l-1-76.72q0-3.45-1-4.2-2-1.72-22.46,3.45t-22,10.1q-1.49,4.92-2.47,7.39c-2.14,5.41-3.7,8.21-4.69,8.37a3.15,3.15,0,0,1-3.7-2,13.75,13.75,0,0,1-1.23-6.17,25.92,25.92,0,0,1,.49-4.44,25,25,0,0,0,.5-4q-.25-5.17-.5-10.61a28,28,0,0,0,0-5.18c-.16-1.64-.33-3.37-.49-5.18,0-2.3.49-3.54,1.48-3.7q1.73-.24,4.69,2.5t5.18,2.74H631.24q1.72,0,4.32-2.1C637.29,477.73,638.65,477.19,639.63,477.52Z"/><path class="cls-1" d="M669.49,593.75v17l.51,4.68.59,55.88L672,701q1.56,13.88,5.08,37.56,1.19,8.37,3.53,23.21L689,703.08l2-30.43V596.46l-.15-2.68.91-109.07q0-2.47,7.9-8.17t7.89-6.69c0-.66-.74-1-2.23-1a54.76,54.76,0,0,0-7.31.87q-5.34.87-11.78,2.35-2.73.74-20.58,3.46-5.7,2-11.15,3.71c.66,1.65,2.8,2.72,6.39,3.21s5.94,1.69,7,3.59a12,12,0,0,1,1.63,6.06V593.75Z"/><path class="cls-2" d="M691.16,655l.16,118.79-2,63.07-8.61,88.42c-1.6-32.14-2.8-43.79-3.6-52.2q-3.6-35.67-5.2-56.57l-1.4-44.69-.61-84.16-.52-7s.79-15.45.79-21.59C674.87,661.3,691.16,655,691.16,655Z"/><path class="cls-1" d="M892.08,620.65V491.28a11.45,11.45,0,0,0-1.73-6c-1.15-1.9-3.37-3.66-6.66-5.31s-5.43-3.13-6.42-4.45c-.49-.82-.66-1.39-.49-1.72s.57-.5,1.23-.5q1.49,0,16,3.27a60.68,60.68,0,0,0,10.86,1.73,32.34,32.34,0,0,0,8-1.11q4.32-1.11,8.76-2.35a.44.44,0,0,1,.49.5c0,.33-.74,1.23-2.22,2.71-1,1-.82,1.94.5,2.84a2.06,2.06,0,0,1,.49,3.33q-2.72,3.7-2.71,6.67v61.2q13.82-14.31,29.36-29.37,13.57-13.08,29.86-27.89,7.65-6.9,13.08-9.62a22.79,22.79,0,0,1,10.12-2.72q3.45,0,10.12,2.47a18.81,18.81,0,0,0,5.67,1.48,10.73,10.73,0,0,1-1.23.74q-13.08,3-16,4.2-10.12,4.7-36.65,23.81T936,537.24q0,2.71,21.23,21,12.33,10.62,17.27,17,8.64,12.84,17.89,26.16t15.18,15.79a52.61,52.61,0,0,0,5.92,2,22.35,22.35,0,0,1,7.4,3.45c.83.66,1.15,1.28,1,1.85s-1.56.87-4.19.87q-4.7,0-9.63-.5-17.52-1.71-18.26-1.72-9.13,0-14.56-5.43-8.88-11.6-18-23.2l-27.15-34.55a19.84,19.84,0,0,0-3.33-3.45,6,6,0,0,0-3.58-1,5.66,5.66,0,0,0-4.93,4v57.74q-4.2,1-8.4,1.73-12.09,2.48-15.54,2.47C892.82,621.39,892.08,621.14,892.08,620.65Z"/><path class="cls-1" d="M1034.71,520.46q0-20.73,10.61-31.84Q1057.17,476,1082.09,476q23,0,38,6.91,10.61,4.94,15.79,12.34,3.7,5.43,3.7,10.11a3.89,3.89,0,0,1-.49,2.47,4.24,4.24,0,0,1-1.23-1.23q-4-12.09-10.12-17-13.83-11.1-47.14-11.1-12.09,0-20.48,6.91-9.63,7.89-9.62,21.71,0,16.29,23,23.45,21.46,6.17,43.18,12.09,23.19,10.37,23.2,34.55a75,75,0,0,1-2.1,18.87,45.2,45.2,0,0,1-7.28,15.18q-4.93-36-30.1-48.12l-43.44-11.35Q1034.72,544.89,1034.71,520.46Zm68.11,105.62q-8.88,0-25.66-4t-22.7-4a21.48,21.48,0,0,0-11.85,2.72,13.92,13.92,0,0,0-2.47,1.72,11.36,11.36,0,0,0,2.72-3.2,20,20,0,0,0,2.71-10.62,12,12,0,0,0-1.73-6.78q-1.72-2.6-3.45-5.55,0-1.72,2.71-4.45,4.94,11.61,19,22.21Q1077.65,626.08,1102.82,626.08Z"/><path class="cls-1" d="M757.16,619.13A85.21,85.21,0,0,1,731.49,594q-11.84-17.76-11.84-37,0-38.51,23.19-62.68,22.45-23.19,55.78-23.2a71.47,71.47,0,0,1,17.27,2q18.75,4.7,21.22,4.69a25.78,25.78,0,0,0,3.95-.24c.49-.83,2.06-2,4.69-3.36s4.36-2.94,5.18-4.6a23.75,23.75,0,0,0,.74,3.7q.24,5.92.25,11.84v13.58q0,2.46.25,7.65c.16,3.45.24,5.84.24,7.15a20.7,20.7,0,0,1-.37,4.94c-.24.82-.78,1-1.6.49-1.81-.82-3.05-3.28-3.7-7.39s-1.24-8.05-1.73-11.82q-3.94-12.57-17-17.25Q818.37,479,800.59,479q-28.38,0-42.2,26.14-11.1,21-11.1,51.8,0,13.83,13.57,34.29c9,13.65,37,28.82,46.4,29.85-20.36,2.59-23.5,1.81-33.68,1S758.64,620,757.16,619.13Z"/><path class="cls-1" d="M887.17,644.34H860.54v52.15l-15.19-18.13v-34h-34V630.8h34V588.42l15.19,12.18v30.2h26.63Z"/><path class="cls-1" d="M267.06,675.74q0-29.61,15.15-45.48,16.94-18,52.53-18,32.79,0,54.29,9.87,15.17,7.07,22.57,17.63,5.28,7.76,5.28,14.46c0,1.88-.23,3-.7,3.52a6.15,6.15,0,0,1-1.76-1.76q-5.66-17.26-14.46-24.33-19.74-15.85-67.33-15.86-17.28,0-29.26,9.87-13.75,11.28-13.75,31,0,23.26,32.78,33.49,30.68,8.82,61.7,17.28,33.13,14.81,33.14,49.35a107.65,107.65,0,0,1-3,27,64.58,64.58,0,0,1-10.4,21.68q-7.05-51.47-43-68.74l-62.05-16.22Q267.06,710.64,267.06,675.74Zm97.3,150.89q-12.71,0-36.67-5.64t-32.43-5.65q-8.11-.69-16.92,3.88a20.2,20.2,0,0,0-3.53,2.47,16.07,16.07,0,0,0,3.88-4.58A28.55,28.55,0,0,0,282.57,802a17.24,17.24,0,0,0-2.47-9.7q-2.48-3.69-4.94-7.93c0-1.64,1.29-3.76,3.88-6.34q7.05,16.57,27.15,31.72Q328.39,826.64,364.36,826.63Z"/><path class="cls-1" d="M577.39,677.64a2.1,2.1,0,0,1,1.48,2.22,13.08,13.08,0,0,1-1.23,4.2,13,13,0,0,0-1.23,4.69v4.93c0,3-.09,5.35-.25,7.16a41.62,41.62,0,0,1-1.36,6.79q-1.11,4.07-2.34,8.51c-.83,3-2.06,4.2-3.71,3.7q-1.72-.24-1.72-5.18c0-1.15,0-2.51.12-4.07s.21-3.33.37-5.31c0-1.31-.16-2-.49-2.22,0-1.84-2-3.63-6-5.39s-6.7-2.89-8-3.39a63.91,63.91,0,0,0-14.68-4.64A77.71,77.71,0,0,0,523.35,688q-4.7,0-5.8,1a3.44,3.44,0,0,0-1.11,2.71v100.5L514,823.58l-10.61,60.53q-3-15.3-4.44-23.93-4.44-24.42-6.42-38.73l-1.73-30.59-1-98.66c0-2.3-.33-3.7-1-4.19q-2-1.72-22.46,3.45t-22,10.09q-1.49,4.94-2.47,7.39-3.21,8.13-4.69,8.37a3.14,3.14,0,0,1-3.7-2,13.75,13.75,0,0,1-1.23-6.17,25.72,25.72,0,0,1,.49-4.44,24.77,24.77,0,0,0,.49-4c-.16-3.46-.33-7-.49-10.61a28,28,0,0,0,0-5.18c-.16-1.65-.33-3.37-.49-5.19,0-2.3.49-3.53,1.48-3.7q1.73-.24,4.69,2.5t5.18,2.75H569q1.72,0,4.32-2.1C575.05,677.85,576.41,677.32,577.39,677.64Z"/><path class="cls-1" d="M946.57,681.1a8.38,8.38,0,0,1-3.4,2.48,15.28,15.28,0,0,0-4.36,2.84q-2.43,2.1-3.4,7.29t-1.57,8.41a57.61,57.61,0,0,0-.85,6.17q-.24,3-.24,6.68V816.32a14.47,14.47,0,0,1-1.36,6.3c-.91,1.9-2.18,2.84-3.83,2.84q-2.71,0-33.06-33.38Q876,771.82,839.71,730q-14.57-16.57-29.12-33.38v77.24q0,5.43.5,15.91c.32,7,.49,10.9.49,11.73l-10.86-1a80.36,80.36,0,0,0,2.1-11.72q.38-4.58.37-14.93V678.63c0-1.15.45-1.68,1.35-1.6s2,.12,3.33.12a29,29,0,0,0,6.4-.86,26.6,26.6,0,0,1,5.42-.87,19.45,19.45,0,0,1,8.37,2.48l97.28,108.57V729.58q0-7.91-.49-13.6a123.63,123.63,0,0,0-2-13.11c-.34-2.48-.71-5.07-1.11-7.79a15.37,15.37,0,0,0-2.6-6.81,33,33,0,0,1-2.59-4,24.28,24.28,0,0,0-2.59-3.7,5.37,5.37,0,0,1-1-2h5.19q7.89,2,10.61,2a53.89,53.89,0,0,0,10-1.36,73.76,73.76,0,0,1,7.53-1.36c.82,0,1.31.25,1.48.74S947.55,680,946.57,681.1Z"/><path class="cls-1" d="M974.94,795.48v-106a3.41,3.41,0,0,0-.74-2.33,29.17,29.17,0,0,0-2.71-2.59c-.5-.49-1.94-.45-4.32.13a26.43,26.43,0,0,1-4.57.86c-3,0-4.44-1.31-4.44-3.95a3.67,3.67,0,0,1,2.22-3.21,9.53,9.53,0,0,1,4.69-1.23,9.79,9.79,0,0,1,4.44,1,7.93,7.93,0,0,0,3.46,1h88.84a5.42,5.42,0,0,0,4.93-3c1.15-2,2.14-3,3-3q4.46,0,4.45,5.18c-.34,3.13-.5,5.35-.5,6.67q0,6.42.62,18.14t.62,12.21c0,4.11-.42,6.17-1.24,6.17a3.31,3.31,0,0,1-3-1.48c-.66-1-1-3.37-1-7.16,0-3.61-.41-6.17-1.23-7.65q-4.2-7.89-23-12.83a161.06,161.06,0,0,0-41.95-5.92c-3.46,0-5.18,2-5.18,5.92a27.58,27.58,0,0,0,1.11,6.66,32.19,32.19,0,0,0,1.11,4.2v42.94c1.81.16,4,.29,6.44.37s5.61.12,9.42.12a142.12,142.12,0,0,0,21.68-1.48q9.54-1.49,12.76-5.43,2-2.46,2.35-7.16t4.09-4.68q4,0,4,5.42a44.8,44.8,0,0,1-.24,5.19q-1.24,9.87-1.24,11.1,0,3.21.5,8.89c.32,3.78.49,6.25.49,7.4q0,6.42-3.45,6.42c-2.47,0-4-2-4.57-6S1051,759.53,1049,758s-6.08-2.63-12.33-3.21-13.08-.86-20.49-.86h-15.54v26.32Zm96.24,11q.25-.24,6.17-18.51,2.48-7.65,4.2-7.65c2.63,0,4,2.07,4,6.19a49.09,49.09,0,0,1-1.73,11.39q-1.73,6.95-3.21,13.13-1.23,10.4-2,16.47t-3.7,6.06q-1.74,0-4.45-4.54a22.29,22.29,0,0,1-1.23-2.27c-.82-.34-1.69-.67-2.59-1a8,8,0,0,0-2.84-.5l-62.19-1q28.88-3.21,38.5-5.18Q1061.81,814.6,1071.18,806.46Z"/><path class="cls-1" d="M741.74,696.68a92.36,92.36,0,0,0-50.36-21.12l0,3.45q18.44,4.41,31.83,23.11a86.13,86.13,0,0,1,16.29,51.41,74.33,74.33,0,0,1-17,48.2q-17.76,22-42.94,22-23.92,0-40.22-22.49A79,79,0,0,1,624,753.53q0-28.92,14.56-51.17c8.62-13.29,18.39-21.22,30.87-23.79l.16-3.23c-19.11,1.8-35.38,9.22-49.91,22.21q-25.29,22.61-25.29,56,0,31.65,26.4,52.41,24.67,19.51,58.73,19.52,35.55,0,61.7-19.28,27.88-20.5,27.88-52.65Q769.13,719.42,741.74,696.68Z"/><path class="cls-1" d="M1094.87,720.58q0-20.73,10.61-31.83,11.85-12.59,36.77-12.59,22.95,0,38,6.91,10.6,4.95,15.79,12.34,3.71,5.43,3.7,10.12a3.91,3.91,0,0,1-.49,2.47,4.27,4.27,0,0,1-1.23-1.24q-4-12.09-10.12-17-13.83-11.12-47.14-11.11-12.09,0-20.48,6.91-9.61,7.9-9.62,21.72,0,16.29,22.95,23.44,21.47,6.16,43.18,12.09,23.19,10.37,23.2,34.55a75.06,75.06,0,0,1-2.1,18.88,45.2,45.2,0,0,1-7.28,15.18q-4.93-36-30.1-48.13l-43.44-11.35Q1094.88,745,1094.87,720.58ZM1163,826.2q-8.88,0-25.66-4t-22.7-3.94a21.46,21.46,0,0,0-11.85,2.71,14.07,14.07,0,0,0-2.47,1.73,11.25,11.25,0,0,0,2.72-3.21,20,20,0,0,0,2.71-10.61,12.06,12.06,0,0,0-1.73-6.79q-1.73-2.6-3.45-5.55,0-1.73,2.71-4.44,4.93,11.6,19,22.21Q1137.81,826.2,1163,826.2Z"/></g></svg>